<?xml version="1.0" encoding="UTF-8" standalone="no"?>
<!-- Created with Inkscape (http://www.inkscape.org/) -->

<svg
   version="1.1"
   id="svg1"
   width="205"
   height="205"
   viewBox="0 0 205 205"
   sodipodi:docname="favicon.svg"
   inkscape:export-filename="favicon.svg"
   inkscape:export-xdpi="96"
   inkscape:export-ydpi="96"
   inkscape:version="1.4.2 (1:1.4.2+202505120738+ebf0e940d0)"
   xmlns:inkscape="http://www.inkscape.org/namespaces/inkscape"
   xmlns:sodipodi="http://sodipodi.sourceforge.net/DTD/sodipodi-0.dtd"
   xmlns="http://www.w3.org/2000/svg"
   xmlns:svg="http://www.w3.org/2000/svg">
  <sodipodi:namedview
     id="namedview1"
     pagecolor="#ffffff"
     bordercolor="#999999"
     borderopacity="1"
     inkscape:showpageshadow="2"
     inkscape:pageopacity="0"
     inkscape:pagecheckerboard="0"
     inkscape:deskcolor="#d1d1d1"
     inkscape:zoom="2.8090178"
     inkscape:cx="103.41693"
     inkscape:cy="102.17095"
     inkscape:window-width="1920"
     inkscape:window-height="1011"
     inkscape:window-x="0"
     inkscape:window-y="32"
     inkscape:window-maximized="1"
     inkscape:current-layer="svg1" />
  <defs
     id="defs1" />
  <path
     id="path2"
     style="display:inline;fill:#6171ff;fill-opacity:1;stroke:none;stroke-width:0.726092;stroke-linecap:round;stroke-linejoin:round"
     d="m 83.993573,46.360683 0.05123,73.720697 c 4e-6,10.29722 8.347554,18.64477 18.644777,18.64477 10.29722,0 18.64478,-8.34755 18.64478,-18.64477 l -0.53298,-73.720697 c 0,-3.665614 -2.97157,-6.637181 -18.4039,-6.637183 -15.432339,0 -18.403907,2.971568 -18.403907,6.637183 z" />
  <path
     id="path1"
     style="display:inline;fill:#ffd661;fill-opacity:1;stroke:none;stroke-width:0.623622;stroke-linecap:round;stroke-linejoin:round"
     d="M 187.0867,7.439308 V 124.15437 c 0,29.89569 -16.9411,53.88478 -42.83152,68.83263 -25.89043,14.94784 -57.788749,14.94784 -83.679173,-1e-5 -25.890423,-14.94784 -42.691655,-36.32007 -42.638981,-67.32195 0.125915,-13.02651 -0.192979,-28.612283 0.115827,-40.900723 2e-6,-3.665614 2.971569,-6.63718 18.668327,-6.63718 15.696758,0 18.668325,2.971566 18.668327,6.63718 l 1.143311,35.535723 c 0.882776,16.29562 9.459727,31.15133 23.382774,39.18981 13.923048,8.03848 31.076948,8.03848 44.999998,0 13.92305,-8.03848 22.5,-22.89419 22.91979,-38.97114 L 149.27373,7.439308 c 0,-3.665614 2.97157,-6.637182 18.90648,-6.637184 15.93492,-4e-6 18.90649,2.971566 18.90649,6.637184" />
</svg>
