<?xml version="1.0" encoding="UTF-8" standalone="no"?>
<!-- Created with Inkscape (http://www.inkscape.org/) -->

<svg
   version="1.1"
   id="svg1"
   width="748"
   height="310"
   viewBox="0 0 748 310"
   sodipodi:docname="Universal Joy Logo.svg"
   inkscape:version="1.4.1 (1:1.4.1+202503302257+93de688d07)"
   inkscape:export-filename="Universal Joy Initial.png"
   inkscape:export-xdpi="96"
   inkscape:export-ydpi="96"
   xmlns:inkscape="http://www.inkscape.org/namespaces/inkscape"
   xmlns:sodipodi="http://sodipodi.sourceforge.net/DTD/sodipodi-0.dtd"
   xmlns="http://www.w3.org/2000/svg"
   xmlns:svg="http://www.w3.org/2000/svg">
  <defs
     id="defs1" />
  <sodipodi:namedview
     id="namedview1"
     pagecolor="#ffffff"
     bordercolor="#000000"
     borderopacity="0.25"
     inkscape:showpageshadow="2"
     inkscape:pageopacity="0.0"
     inkscape:pagecheckerboard="0"
     inkscape:deskcolor="#d1d1d1"
     inkscape:zoom="1.1864973"
     inkscape:cx="403.7093"
     inkscape:cy="112.93747"
     inkscape:window-width="1920"
     inkscape:window-height="1011"
     inkscape:window-x="0"
     inkscape:window-y="32"
     inkscape:window-maximized="1"
     inkscape:current-layer="g1" />
  <g
     inkscape:groupmode="layer"
     inkscape:label="Image"
     id="g1"
     style="display:inline">
    <g
       id="g7"
       style="fill:#6171ff;stroke:none;fill-opacity:1"
       inkscape:export-filename="Universal Joy Initial.png"
       inkscape:export-xdpi="96"
       inkscape:export-ydpi="96">
      <path
         id="path2"
         style="display:inline;fill:#6171ff;stroke:none;stroke-width:0.726092;stroke-linecap:round;stroke-linejoin:round;fill-opacity:1"
         d="m 89.881233,62.271496 0.05123,73.720694 c 4e-6,10.29722 8.347554,18.64477 18.644777,18.64477 10.29722,0 18.64478,-8.34755 18.64478,-18.64477 l -0.53298,-73.720694 c 0,-3.665614 -2.97157,-6.637181 -18.4039,-6.637183 -15.432339,0 -18.403907,2.971568 -18.403907,6.637183 z"
         sodipodi:nodetypes="ccscccc"
         inkscape:label="Inner_U" />
    </g>
    <g
       id="g8"
       style="fill:#ffd661;stroke:none;fill-opacity:1"
       inkscape:export-filename="Initial.png"
       inkscape:export-xdpi="96"
       inkscape:export-ydpi="96">
      <path
         id="path1-9-8"
         style="display:inline;fill:#ffd661;stroke:none;stroke-width:0.623622;stroke-linecap:round;stroke-linejoin:round;fill-opacity:1"
         transform="scale(-1,1)"
         d="m -192.97436,23.350121 8.73944,122.614779 c 0,29.89569 8.20166,47.98506 34.09208,62.93291 25.89043,14.94784 57.788749,14.94784 83.679173,-1e-5 25.890423,-14.94784 42.589828,-41.97823 42.537154,-72.98011 -0.125915,-13.02651 0.294806,-22.95412 -0.014,-35.24256 -2e-6,-3.665614 -2.971569,-6.63718 -18.668327,-6.63718 -15.696758,0 -18.668325,2.971566 -18.668327,6.63718 l -1.143311,35.53572 c -0.882776,16.29562 -9.459727,31.15133 -23.382774,39.18981 -13.923048,8.03848 -31.076948,8.03848 -44.999998,0 -13.92305,-8.03848 -22.5,-22.89419 -22.91979,-38.97114 l -1.43835,-113.079399 c 0,-3.665614 -2.97157,-6.637182 -18.90648,-6.637184 -15.93492,-4e-6 -18.90649,2.971566 -18.90649,6.637184"
         sodipodi:nodetypes="ccsscccccsscccc"
         inkscape:label="Outer_J" />
      <path
         id="path1"
         style="display:inline;fill:#ffd661;stroke:none;stroke-width:0.623622;stroke-linecap:round;stroke-linejoin:round;fill-opacity:1"
         transform="scale(-1,1)"
         d="M -192.97436,23.350121 V 140.06518 c 0,29.89569 16.9411,53.88478 42.83152,68.83263 25.89043,14.94784 57.788749,14.94784 83.679173,-1e-5 25.890423,-14.94784 42.691655,-36.32007 42.638981,-67.32195 -0.125915,-13.02651 0.192979,-28.61228 -0.115827,-40.90072 -2e-6,-3.665614 -2.971569,-6.63718 -18.668327,-6.63718 -15.696758,0 -18.668325,2.971566 -18.668327,6.63718 l -1.143311,35.53572 c -0.882776,16.29562 -9.459727,31.15133 -23.382774,39.18981 -13.923048,8.03848 -31.076948,8.03848 -44.999998,0 -13.92305,-8.03848 -22.5,-22.89419 -22.91979,-38.97114 l -1.43835,-113.079399 c 0,-3.665614 -2.97157,-6.637182 -18.90648,-6.637184 -15.93492,-4e-6 -18.90649,2.971566 -18.90649,6.637184"
         sodipodi:nodetypes="ccsscccccsscccc"
         inkscape:label="Outer_J" />
    </g>
    <text
       xml:space="preserve"
       style="font-style:normal;font-variant:normal;font-weight:normal;font-stretch:normal;font-size:74.6667px;font-family:sans-serif;-inkscape-font-specification:sans-serif;text-align:start;writing-mode:lr-tb;direction:ltr;text-anchor:start;fill:#ffd42a;stroke:#000000;stroke-width:0.62;stroke-linecap:round;stroke-linejoin:round;stroke-dasharray:none"
       x="227.94383"
       y="125.7346"
       id="text8"><tspan
         sodipodi:role="line"
         id="tspan8"
         x="227.94383"
         y="125.7346"
         style="font-size:74.6667px;fill:#333333;stroke:#333333">Universal Joy</tspan></text>
    <text
       xml:space="preserve"
       style="font-style:normal;font-variant:normal;font-weight:normal;font-stretch:normal;font-size:26.6667px;font-family:sans-serif;-inkscape-font-specification:sans-serif;text-align:start;writing-mode:lr-tb;direction:ltr;text-anchor:start;fill:#333333;stroke:#333333;stroke-width:0.62;stroke-linecap:round;stroke-linejoin:round;stroke-dasharray:none"
       x="308.70807"
       y="175.10168"
       id="text9"><tspan
         sodipodi:role="line"
         id="tspan9"
         x="308.70807"
         y="175.10168">PLAY BEYOND BARRIERS</tspan></text>
    <path
       style="fill:#333333;stroke:#333333;stroke-width:2.22;stroke-linecap:round;stroke-linejoin:round;stroke-dasharray:none"
       d="M 291.79219,165.39464 H 231.22408"
       id="path9"
       sodipodi:nodetypes="cc" />
    <path
       style="display:inline;fill:#333333;stroke:#333333;stroke-width:2.22;stroke-linecap:round;stroke-linejoin:round;stroke-dasharray:none"
       d="M 713.49715,165.39464 H 652.92904"
       id="path9-5"
       sodipodi:nodetypes="cc" />
  </g>
</svg>
